<?xml version="1.0" standalone="no"?>
<!DOCTYPE svg PUBLIC "-//W3C//DTD SVG 20010904//EN"
 "http://www.w3.org/TR/2001/REC-SVG-20010904/DTD/svg10.dtd">
<svg version="1.0" xmlns="http://www.w3.org/2000/svg"
 width="550.000000pt" height="416.000000pt" viewBox="0 0 550.000000 416.000000"
 preserveAspectRatio="xMidYMid meet">

<g transform="translate(0.000000,416.000000) scale(0.100000,-0.100000)"
fill="#000000" stroke="none">
<path d="M2150 4153 c-709 -31 -1234 -86 -1481 -154 -152 -41 -322 -145 -409
-248 -108 -130 -147 -236 -184 -498 -98 -700 -100 -1564 -5 -2218 51 -349 94
-460 239 -606 191 -194 363 -249 965 -313 1041 -111 2456 -89 3320 50 291 47
432 108 578 251 141 138 182 236 226 537 122 834 130 1497 25 2200 -61 410
-94 497 -249 651 -137 137 -285 212 -473 240 -248 37 -819 84 -1257 104 -168
8 -1150 11 -1295 4z m1315 -163 c413 -18 876 -56 1177 -95 223 -30 403 -137
508 -302 41 -64 65 -145 94 -313 123 -711 126 -1387 10 -2230 -46 -337 -69
-398 -193 -520 -121 -120 -222 -163 -468 -204 -720 -121 -1903 -158 -2873 -90
-523 36 -935 93 -1072 149 -136 55 -264 167 -327 285 -49 91 -90 303 -125 640
-54 518 -45 1275 19 1795 47 377 73 451 194 572 113 113 238 166 486 208 605
102 1654 145 2570 105z"/>
<path d="M735 3415 c-16 -15 -25 -36 -25 -55 0 -38 39 -80 73 -80 42 0 77 36
77 80 0 71 -76 104 -125 55z"/>
<path d="M2040 2106 c0 -636 2 -1156 4 -1156 2 0 170 95 373 212 1267 727
1619 930 1626 937 4 4 -430 259 -965 566 -535 308 -988 568 -1005 578 l-33 19
0 -1156z m1010 394 c377 -216 686 -394 688 -395 1 -1 -208 -122 -465 -270
-389 -223 -1038 -596 -1065 -612 -5 -2 -8 394 -8 881 l0 886 83 -49 c45 -27
390 -225 767 -441z"/>
<path d="M2382 2627 c-48 -50 -15 -127 53 -127 22 0 43 8 55 20 12 12 20 33
20 55 0 69 -81 102 -128 52z"/>
<path d="M2385 2315 c-16 -15 -25 -36 -25 -55 0 -38 39 -80 73 -80 42 0 77 36
77 80 0 71 -76 104 -125 55z"/>
<path d="M2380 2000 c-28 -28 -26 -81 3 -108 49 -46 127 -12 127 56 0 43 -30
72 -75 72 -22 0 -43 -8 -55 -20z"/>
<path d="M2386 1689 c-46 -36 -32 -108 24 -128 79 -27 138 70 77 127 -29 28
-67 28 -101 1z"/>
<path d="M652 3097 c-59 -63 11 -152 93 -121 27 11 45 62 33 96 -18 52 -88 66
-126 25z"/>
<path d="M655 2785 c-40 -39 -32 -96 16 -121 81 -42 154 63 85 123 -35 30 -71
29 -101 -2z"/>
<path d="M675 2489 c-51 -29 -60 -85 -20 -124 42 -43 103 -28 124 28 24 62
-47 127 -104 96z"/>
<path d="M651 2154 c-55 -70 21 -156 100 -113 29 15 40 52 28 89 -20 56 -92
70 -128 24z"/>
<path d="M673 1860 c-47 -19 -57 -87 -18 -125 30 -31 66 -32 101 -2 37 33 37
81 0 114 -29 24 -47 27 -83 13z"/>
<path d="M652 1527 c-59 -63 11 -152 93 -121 27 11 45 62 33 96 -18 52 -88 66
-126 25z"/>
<path d="M655 1215 c-40 -39 -32 -96 16 -121 81 -42 154 63 85 123 -35 30 -71
29 -101 -2z"/>
<path d="M755 919 c-32 -18 -45 -40 -45 -75 0 -37 38 -74 75 -74 12 0 34 9 49
21 66 52 -6 169 -79 128z"/>
</g>
</svg>
